<?xml version="1.0" encoding="UTF-8" standalone="no"?><!--Created with Inkscape (http://www.inkscape.org/)--><svg width="512" height="512" viewBox="0 0 135.46667 135.46667" version="1.1" id="svg21" xml:space="preserve" xmlns="http://www.w3.org/2000/svg"><g id="layer1"><path style="display:inline;fill:#febf00;stroke-width:0.264583" d="M61.84 126.59c-.46-.458-.722-1.073-.822-1.918-.081-.684-.699-12.614-1.372-26.512-.674-13.897-1.302-25.47-1.397-25.718-.149-.387-1.565.156-10.173 3.903-6.704 2.918-10.308 4.353-10.934 4.353-.68 0-1.145-.21-1.708-.773-.676-.677-.774-.966-.774-2.3 0-1.488 4.89-64.763 5.175-66.952.09-.695.395-1.354.827-1.786l.685-.685h31.517l.742.711c.571.547.743.959.748 1.786.004.591-.966 6.167-2.155 12.391-1.19 6.224-2.115 11.363-2.057 11.421.058.058 6.356-1.497 13.996-3.454 12.526-3.21 13.987-3.533 14.873-3.278 1.234.355 1.796 1.142 1.791 2.509-.006 1.48-34.3 95.45-35.162 96.345-.884.918-2.862.896-3.8-.043z" id="path336"/><path style="fill:#1333a3;stroke-width:0.264583" d="M25.93 93.21c-4.168-.728-8.702-2.46-11.907-4.546-4.221-2.749-8.808-7.968-10.86-12.359C.998 71.678-.052 65.466.504 60.592c.854-7.473 3.513-13.026 8.749-18.268 4.023-4.028 8.259-6.44 14.03-7.987 2.237-.6 2.337-.603 20.505-.603 18.167 0 18.267.003 20.505.603 5.77 1.548 10.006 3.96 14.03 7.987 4.026 4.031 6.194 7.639 7.668 12.762 1.085 3.771 1.481 7.824 1.107 11.342-.413 3.884-.737 4.76-1.99 5.372-2.894 1.413-7.95 1.886-11.937 1.115-2.984-.577-3.488-1.854-1.949-4.934.772-1.544.844-1.906.845-4.21 0-2.265-.089-2.73-.881-4.6-1.205-2.842-3.21-4.975-6.008-6.393 0 0-2.82-1.166-7.137-.986l-12.798-.066-11.412-.22c-5.53.294-8.432 1.18-8.432 1.18-4.845.677-7.612 7.415-7.02 11.571.642 4.518 3.09 8.008 7.02 10.007 0 0 1.334.93 5.26 1.13l7.925.012c12.544.02 11.551-.028 12.185 2.17 1.652 5.733 2.962 8.133 6.04 11.069 2.394 2.282 2.736 3.15 1.663 4.224-.518.518-.857.528-16.206.493-8.622-.02-15.912.01-16.338-.152zm47.889.005c-4.316-.788-8.701-2.464-11.907-4.551-4.22-2.749-8.807-7.968-10.86-12.359-2.129-4.553-3.203-10.851-2.684-15.733.455-4.28.66-4.719 2.564-5.49 3.397-1.378 6.656-1.697 10.89-1.067 3.414.508 4.031 1.783 2.421 5.004-.771 1.544-.844 1.906-.844 4.21-.001 2.265.088 2.73.88 4.6 1.206 2.842 3.21 4.975 6.008 6.393 0 0 1.9 1.397 6.966 1.126l12.97-.074 10.999.114c4.964-.068 8.845-1.073 8.845-1.073 4.783-1.08 7.611-7.416 7.02-11.572-.643-4.518-3.086-8-7.02-10.005 0 0-2.377-1.35-6.864-1.437l-6.321.293c-12.531.58-11.555.028-12.182-2.17-1.636-5.73-2.927-8.096-6.033-11.058-2.413-2.301-2.749-3.16-1.662-4.246.535-.535.719-.212 16.867-.448l7.83-.114c4.475-.193 10.878.882 10.878.882 5.858.959 9.647 3.893 13.633 7.884 4.05 4.055 6.225 7.687 7.667 12.807 1.406 4.988 1.609 9.247.67 14.058-1.223 6.274-3.665 10.81-8.337 15.487-3.985 3.99-7.666 6.52-13.382 8.142 0 0-1.739.334-2.503.445-.737.106-17.988.024-17.988.024-9.823.042-18.157-.005-18.521-.072z" id="path1143"/></g></svg>